<svg width="141" height="140" fill="none" xmlns="http://www.w3.org/2000/svg">
  <path d="M95.9 76.6c.4-.3.6-.8.6-1.2v-5c-1-.2-1.9-.2-2.8-.2l-3 .1v5c0 .5.1 1 .6 1.3h-4c.5-.3.7-.8.7-1.2V64.2c0-.5-.3-1-.6-1.3h3.9c-.3.4-.6.8-.6 1.3v4.7l3 .2 2.8-.2v-4.7c0-.5-.3-1-.6-1.3h3.9c-.5.4-.6.8-.6 1.3v11.2c0 .4.1 1 .6 1.2h-4zm-13-3.1c0-2.5-6.2-3.2-6.2-7.3 0-2.5 2.3-3.4 4.5-3.4 1.1 0 2.2.1 3.3.5l.2 2.6c-.6-1.2-1.7-1.9-3.1-2-1 0-2 .5-2 1.6 0 2.6 6.2 3.4 6.2 7.2 0 2.8-2.5 4-5 4-1.4 0-3-.4-4.3-1l-.1-1.4c0-.7.1-1.3.3-1.8a4 4 0 004 2.9c1 .1 2.1-.7 2.3-1.8l-.2-.1zm-12.5 3.1c.5-.1.8-.8.8-1.2V64.2c0-.5-.3-1-.8-1.3h4.2c-.4.4-.8.8-.8 1.3v11.2c0 .4.4 1 .8 1.2h-4.2zm-9.3 0c.5-.3.6-.8.6-1.2V64.5h-3l-2.2.3 1-2h9.9c.8 0 1.6 0 2.4-.2-.4 1-1.3 1.6-2.2 1.8h-3.3v10.8c0 .5.3 1 .7 1.3h-3.9v.1zm-9.1 0c.5-.1.8-.8.8-1.2V64.2c0-.5-.3-1-.8-1.3h4.2c-.4.4-.8.8-.8 1.3v11.2c0 .4.4 1 .8 1.2H52zm-2.8.2c-.7 0-1.1 0-1.6-.3-1-.3-2.2-2.2-2.7-3.2-1-1.2-1.6-3.1-3.3-3.1v5.2c0 .4.2 1 .6 1.2h-4c.4-.3.6-.8.6-1.2V64.2c0-.5-.2-1-.7-1.3h5c2.3 0 4.8 1 4.8 3.5 0 2.2-1.7 3.3-3.8 3.3 2.9 0 4.6 6.6 7.6 6.6a6.5 6.5 0 01-2.5.5zm-7-12.6h-.6v4.7h.6c1.3.2 2.5-.8 2.7-2.2v-.3c0-1.6-1-2.2-2.7-2.2zm-11.6 6h-1.3v5c.7.2 1.3.2 2 .2 1.3 0 2.8-.5 2.8-2.7s-1.8-2.5-3.5-2.5zm-.5-6h-.8v4.7h.7c1.5 0 3.1-.5 3.1-2.3-.1-2-1.2-2.4-3-2.4zM26 76.6c.4-.3.6-.8.6-1.2V64.2c0-.5-.2-1-.6-1.3H31c2.3 0 4.7 1 4.7 3.8a3.3 3.3 0 01-2.7 2.9c2 0 3.8 1 3.8 3.3 0 3.1-3.2 3.9-5.4 3.9l-5.6-.2zm72.6 14.5c0-2.5-6-3.1-6-7.2 0-2.6 2.4-3.5 4.6-3.5 1.1 0 2.2.2 3.3.5l.2 2.6c-.6-1.2-1.7-1.8-3.2-2-1 0-2 .5-2 1.6 0 2.7 6.1 3.4 6.1 7.2 0 2.8-2.3 4-4.9 4-1.4 0-3-.4-4.2-1l-.2-1.4.2-1.6a4.7 4.7 0 004 2.8c1.2.2 2.1-.4 2.1-2zm-7.5-9l-3.2 5.7V93c0 .5.2 1 .5 1.2h-4c.4-.3.7-.7.6-1.2v-5.2l-2.6-4.6C82 83 81 81 79.5 81l2.4-.3c1.4 0 2 .1 2.8 1.4l2.7 4c.3-.2 2.2-3.9 2.2-3.9.1-.3.3-.6.3-1 0 0 0-.2-.3-.2h2.8c-.5.1-1 .6-1.4 1.2zM78.7 94.2c.3-.1.3-.3.3-.4l-.1-.5s-1-3-1.3-3.5h-4.9l-1.4 3.5-.3.6c0 .2.3.3.3.3h-2.8c.3-.1.6-.6 1-.9L74 81.7l.2-.2a.9.9 0 00-.5-.8H77l4.6 12.6c.2.5.6.8 1 1h-4zm-3.4-11l-2 5.2c.5.2 1.2.2 1.8.2.6 0 1.4 0 2-.2l-1.8-5.2zm-5-1.2l-4 12.2c-.3 0-.6 0-1-.3a14 14 0 01-1.2-2.6l-1.9-4.8-2.8 7.6H58l-4.7-12.3a2.4 2.4 0 00-1-1.2h4.1l-.3.4c0 .2 0 .3.2.5l3 8.2 3.1-9.1 3.5 8.8 2.8-8 .2-.4a.3.3 0 00-.3-.3h2.6a2.4 2.4 0 00-1 1.3zM53.5 94.4c-.5 0-1.1 0-1.6-.2-1-.3-2.2-2.3-2.8-3.3-.8-1.2-1.7-3.1-3.5-3.1V93c0 .5.2 1 .7 1.2H42c.4-.3.6-.7.6-1.2V81.8c0-.3-.2-1-.6-1h5c2.2 0 4.7.7 4.7 3.4 0 1.9-1.5 3.3-3.4 3.3 2.8.1 4.7 6.6 7.5 6.6-.8.3-1.6.3-2.5.3zm-7.2-12.6h-.7v4.7h.7c1.2.2 2.5-.7 2.6-2V84c0-1.6-1-2.2-2.6-2.2zM35.6 94.2c.5-.1.8-.7.8-1.2V81.8c0-.5-.3-1-.8-1H40c-.5 0-.8.5-.8 1V93c0 .5.3 1 .8 1.2h-4.3zm-8.2-11l-2 5.2c.6.2 1.3.2 1.9.2.8 0 1.4 0 2.2-.2l-2-5.2zm3.8 11c.2-.1.3-.3.3-.4l-.1-.5-1.3-3.5H25l-1.4 3.5-.3.6c0 .2.3.3.3.3H21c.5-.3.8-.6 1-.9l4.3-11.6s.2 0 .2-.2a.9.9 0 00-.5-.8h3.5L34 93.3c.1.5.6.8.9 1h-3.8zm103.2-39.4a36.8 36.8 0 01-9.8 5.2 219.2 219.2 0 01-6.7 2.3l-6.5 2c5 1.6 10 2.7 15.1 3.5 2.7-1 5.2-2 7.6-3.4a20 20 0 004.5-2.9c.8-.4 1.3-1.4 1.5-2.2l.1-.4v-.5l-.1-.3c0-.1 0-.3-.2-.5-.2-.5-.3-.8-.8-1.1a8.2 8.2 0 00-2.8-1.6l-1.7-.4-.2.3z" fill="#191B1D"/>
  <path d="M141 57.3c0-.2 0-.3-.2-.3 0-.3-.1-.3-.3-.7l-.6-.7-.8-.7a18 18 0 00-4-1.4l-5-.3c-.7 0-5.8 0-7 .2l-14.8.1a178 178 0 01-37-2.2c-4-.8-8.2-1.7-12.2-3l55.2-2.2a128.7 128.7 0 0115.4.5c1.2.1 2.5.5 3.6 1 1.4.4 2.8 1.2 3.8 2.4l.4.5.8 1.1c.7 1 1.1 2 1.6 2.9l.5 1 .3.7c.1.3.1.8.3 1z" fill="#191B1D"/>
</svg>
